<svg width="41" height="40" viewBox="0 0 41 40" fill="none" xmlns="http://www.w3.org/2000/svg">
<path d="M40.0009 15.3398C39.8746 14.974 39.6449 14.6527 39.3396 14.4148C39.0343 14.177 38.6665 14.0328 38.2809 13.9998L26.9009 12.3398L21.8009 1.9998C21.6372 1.66166 21.3815 1.37649 21.0631 1.17695C20.7448 0.977412 20.3766 0.871582 20.0009 0.871582C19.6252 0.871582 19.2571 0.977412 18.9388 1.17695C18.6204 1.37649 18.3647 1.66166 18.2009 1.9998L13.1009 12.3198L1.72093 13.9998C1.35078 14.0524 1.00278 14.2077 0.716432 14.4481C0.430084 14.6885 0.216851 15.0044 0.100931 15.3598C-0.00517862 15.7072 -0.0147007 16.0768 0.0733869 16.4292C0.161475 16.7815 0.343847 17.1033 0.600931 17.3598L8.86093 25.3598L6.86093 36.7198C6.78018 37.0966 6.81004 37.4888 6.9469 37.8491C7.08376 38.2094 7.32181 38.5224 7.63239 38.7506C7.94298 38.9788 8.31287 39.1124 8.69759 39.1353C9.0823 39.1582 9.46545 39.0695 9.80093 38.8798L20.0009 33.5398L30.2009 38.8798C30.4816 39.0382 30.7986 39.1209 31.1209 39.1198C31.5446 39.1213 31.9578 38.9883 32.3009 38.7398C32.6112 38.5175 32.8514 38.2111 32.9932 37.8567C33.1349 37.5023 33.1723 37.1148 33.1009 36.7398L31.1009 25.3798L39.3609 17.3798C39.6497 17.1352 39.8631 16.8136 39.9764 16.4525C40.0897 16.0914 40.0982 15.7056 40.0009 15.3398ZM27.7009 23.3398C27.4694 23.5646 27.2958 23.8421 27.1948 24.1486C27.0938 24.455 27.0685 24.7814 27.1209 25.0998L28.5609 33.4998L21.0409 29.4998C20.7487 29.3552 20.427 29.28 20.1009 29.28C19.7749 29.28 19.4532 29.3552 19.1609 29.4998L11.6409 33.4998L13.0809 25.0998C13.1334 24.7814 13.1081 24.455 13.0071 24.1486C12.9061 23.8421 12.7324 23.5646 12.5009 23.3398L6.50093 17.3398L14.9209 16.1198C15.2449 16.0747 15.5529 15.9509 15.8179 15.7591C16.0829 15.5673 16.2968 15.3135 16.4409 15.0198L20.0009 7.3998L23.7609 15.0398C23.905 15.3335 24.1189 15.5873 24.3839 15.7791C24.6489 15.9709 24.9569 16.0947 25.2809 16.1398L33.7009 17.3598L27.7009 23.3398Z" fill="#898B8F"/>
</svg>
