<svg width="21" height="20" viewBox="0 0 21 20" fill="none" xmlns="http://www.w3.org/2000/svg">
<path d="M20.0005 7.66999C19.9373 7.48708 19.8224 7.32642 19.6698 7.20749C19.5171 7.08857 19.3333 7.01649 19.1405 6.99999L13.4505 6.16999L10.9005 0.999993C10.8186 0.830922 10.6907 0.688335 10.5316 0.588566C10.3724 0.488798 10.1883 0.435883 10.0005 0.435883C9.81261 0.435883 9.62855 0.488798 9.46938 0.588566C9.3102 0.688335 9.18235 0.830922 9.10047 0.999993L6.55047 6.15999L0.860466 6.99999C0.675388 7.0263 0.50139 7.10396 0.358216 7.22415C0.215042 7.34435 0.108426 7.50227 0.0504657 7.67999C-0.00258931 7.85367 -0.00735037 8.03851 0.0366935 8.21469C0.0807373 8.39086 0.171923 8.55172 0.300466 8.67999L4.43047 12.68L3.43047 18.36C3.39009 18.5484 3.40502 18.7445 3.47345 18.9246C3.54188 19.1048 3.6609 19.2613 3.8162 19.3754C3.97149 19.4895 4.15644 19.5563 4.34879 19.5677C4.54115 19.5792 4.73272 19.5348 4.90047 19.44L10.0005 16.77L15.1005 19.44C15.2408 19.5192 15.3993 19.5605 15.5605 19.56C15.7723 19.5607 15.9789 19.4942 16.1505 19.37C16.3056 19.2589 16.4257 19.1056 16.4966 18.9284C16.5675 18.7512 16.5862 18.5575 16.5505 18.37L15.5505 12.69L19.6805 8.68999C19.8248 8.56767 19.9316 8.4069 19.9882 8.22634C20.0448 8.04579 20.0491 7.85287 20.0005 7.66999ZM13.8505 11.67C13.7347 11.7824 13.6479 11.9211 13.5974 12.0744C13.5469 12.2276 13.5342 12.3908 13.5605 12.55L14.2805 16.75L10.5205 14.75C10.3743 14.6777 10.2135 14.6401 10.0505 14.6401C9.88743 14.6401 9.7266 14.6777 9.58047 14.75L5.82047 16.75L6.54047 12.55C6.5667 12.3908 6.55403 12.2276 6.50353 12.0744C6.45304 11.9211 6.36621 11.7824 6.25047 11.67L3.25047 8.66999L7.46047 8.05999C7.62246 8.03746 7.77646 7.97553 7.90896 7.87964C8.04147 7.78376 8.14842 7.65683 8.22047 7.50999L10.0005 3.69999L11.8805 7.51999C11.9525 7.66683 12.0595 7.79376 12.192 7.88964C12.3245 7.98553 12.4785 8.04746 12.6405 8.06999L16.8505 8.67999L13.8505 11.67Z" fill="#FF9900"/>
</svg>
